<svg xmlns="http://www.w3.org/2000/svg" xmlns:xlink="http://www.w3.org/1999/xlink" viewBox="0 0 247 236"><defs><style>.cls-1{fill:none;}.cls-2{clip-path:url(#clip-path);}.cls-3{fill:#fff;}.cls-4{fill:#ab1f2e;}</style><clipPath id="clip-path"><rect class="cls-1" x="36.59" y="31.09" width="173.83" height="173.83"/></clipPath></defs><g id="extra_ikonit_muut" data-name="extra ikonit muut"><g class="cls-2"><circle class="cls-3" cx="123.5" cy="118" r="86"/><path class="cls-4" d="M123.5,204.91A86.91,86.91,0,1,1,210.41,118,87,87,0,0,1,123.5,204.91Zm0-170.82A83.91,83.91,0,1,0,207.41,118,84,84,0,0,0,123.5,34.09Z"/></g><path class="cls-4" d="M123.59,50.39a65.87,65.87,0,0,1,64.77,53c3.25,15.56,1.75,30.73-5.24,45.06-9.77,20-25.8,32.07-47.71,36a65.32,65.32,0,0,1-41.3-5.6C77.27,170.57,66,157.3,60.45,139.41c-6.07-19.74-4.24-38.89,6.37-56.73C77.31,65,93,54.67,113.28,51.41,116.68,50.87,120.15,50.72,123.59,50.39ZM160,153.84v-1.56q0-26.62,0-53.23a38.91,38.91,0,0,0-.93-8.47c-3.19-14.24-14.16-21.49-25.15-21.92a26,26,0,0,0-19.85,7.39c-5.12,5-7.62,11.18-8.46,18.14-.2,1.61-.28,3.22-.43,5-.64,0-1.23.09-1.83.11a34.09,34.09,0,0,0-8.57,1.32c-13.72,3.91-19.9,15-20.07,24.89-.2,11.21,4.67,19.56,14.59,24.82a32.26,32.26,0,0,0,15.17,3.46q26.91.1,53.84.18C158.79,153.93,159.29,153.87,160,153.84Z"/></g></svg>