<svg xmlns="http://www.w3.org/2000/svg" xmlns:xlink="http://www.w3.org/1999/xlink" viewBox="0 0 247 236"><defs><style>.cls-1{fill:none;}.cls-2{clip-path:url(#clip-path);}.cls-3{fill:#1e1916;}.cls-4{fill:#fff;}</style><clipPath id="clip-path"><rect class="cls-1" x="22.44" y="16.94" width="202.12" height="202.12"/></clipPath></defs><g id="extra_ikonit_muut" data-name="extra ikonit muut"><g class="cls-2"><path class="cls-3" d="M123.5,219.06A101.06,101.06,0,1,0,22.44,118,101.06,101.06,0,0,0,123.5,219.06"/><path class="cls-4" d="M123.5,196.22A78.22,78.22,0,1,1,201.72,118,78.31,78.31,0,0,1,123.5,196.22Zm0-153.74A75.52,75.52,0,1,0,199,118,75.61,75.61,0,0,0,123.5,42.48Z"/></g><path class="cls-4" d="M123.5,166.9l-.83-.56c-1.6-1.07-39.2-26.48-39.2-56.9a40,40,0,0,1,80.06,0c0,30.42-37.6,55.83-39.2,56.9Zm0-94.49a37.07,37.07,0,0,0-37,37c0,26.4,31.47,49.88,37,53.83,5.56-4,37-27.43,37-53.83A37.07,37.07,0,0,0,123.5,72.41Z"/><path class="cls-4" d="M123.5,123.78a14.35,14.35,0,1,1,14.34-14.34A14.35,14.35,0,0,1,123.5,123.78Zm0-25.69a11.35,11.35,0,1,0,11.34,11.35A11.36,11.36,0,0,0,123.5,98.09Z"/></g></svg>