<?xml version="1.0" encoding="UTF-8" standalone="no"?>
<svg
   xmlns:dc="http://purl.org/dc/elements/1.1/"
   xmlns:cc="http://creativecommons.org/ns#"
   xmlns:rdf="http://www.w3.org/1999/02/22-rdf-syntax-ns#"
   xmlns:svg="http://www.w3.org/2000/svg"
   xmlns="http://www.w3.org/2000/svg"
   xmlns:sodipodi="http://sodipodi.sourceforge.net/DTD/sodipodi-0.dtd"
   xmlns:inkscape="http://www.inkscape.org/namespaces/inkscape"
   version="1.0"
   width="1080.000000pt"
   height="1080.000000pt"
   viewBox="0 0 1080.000000 1080.000000"
   preserveAspectRatio="xMidYMid meet"
   id="svg34"
   sodipodi:docname="rcff_elokuvat_1080p.svg"
   inkscape:version="0.92.4 (5da689c313, 2019-01-14)">
  <metadata
     id="metadata40">
    <rdf:RDF>
      <cc:Work
         rdf:about="">
        <dc:format>image/svg+xml</dc:format>
        <dc:type
           rdf:resource="http://purl.org/dc/dcmitype/StillImage" />
      </cc:Work>
    </rdf:RDF>
  </metadata>
  <defs
     id="defs38" />
  <sodipodi:namedview
     pagecolor="#ffffff"
     bordercolor="#666666"
     borderopacity="1"
     objecttolerance="10"
     gridtolerance="10"
     guidetolerance="10"
     inkscape:pageopacity="0"
     inkscape:pageshadow="2"
     inkscape:window-width="1920"
     inkscape:window-height="1017"
     id="namedview36"
     showgrid="false"
     inkscape:zoom="0.65555556"
     inkscape:cx="779.62494"
     inkscape:cy="859.58995"
     inkscape:window-x="-8"
     inkscape:window-y="-8"
     inkscape:window-maximized="1"
     inkscape:current-layer="svg34" />
  <g
     transform="translate(0.000000,1080.000000) scale(0.100000,-0.100000)"
     fill="#000000"
     stroke="none"
     id="g32">
    <path
       d="M5175 10794 c-328 -20 -559 -47 -805 -95 -1058 -206 -2016 -715 -2780 -1479 -436 -435 -759 -885 -1029 -1430 -306 -618 -480 -1248 -542 -1960 -17 -187 -17 -673 0 -860 61 -701 229 -1319 525 -1926 274 -562 600 -1019 1041 -1459 440 -441 897 -767 1459 -1041 607 -296 1225 -464 1926 -525 187 -17 673 -17 860 0 701 61 1319 229 1926 525 562 274 1019 600 1459 1041 768 767 1279 1726 1484 2785 68 349 95 645 95 1030 0 293 -11 464 -45 725 -119 898 -475 1770 -1022 2501 -308 413 -688 793 -1101 1101 -353 264 -766 499 -1171 667 -490 202 -1059 339 -1610 386 -128 11 -570 20 -670 14z m750 -1243 c474 -64 889 -188 1298 -386 1195 -578 2051 -1701 2291 -3005 53 -288 61 -391 61 -760 0 -369 -8 -472 -61 -760 -67 -364 -186 -726 -349 -1063 -578 -1195 -1701 -2051 -3005 -2291 -288 -53 -391 -61 -760 -61 -369 0 -472 8 -760 61 -459 84 -917 253 -1320 484 -1070 616 -1813 1665 -2034 2870 -53 288 -61 391 -61 760 0 369 8 472 61 760 67 364 186 726 349 1063 620 1283 1864 2168 3275 2331 206 24 204 24 545 21 254 -3 351 -8 470 -24z"
       id="path2"
       style="fill:#ff2a2a" />
    <path
       d="M5120 9424 c-118 -9 -391 -47 -510 -71 -788 -159 -1491 -535 -2059 -1104 -569 -568 -945 -1271 -1104 -2059 -57 -282 -71 -438 -71 -790 0 -282 3 -347 23 -495 64 -482 189 -897 390 -1298 484 -967 1332 -1702 2353 -2038 576 -190 1213 -245 1828 -159 1305 182 2444 1005 3041 2197 263 524 400 1084 416 1688 17 676 -122 1312 -416 1898 -522 1042 -1473 1818 -2583 2106 -340 88 -595 121 -968 125 -157 2 -310 2 -340 0z m-1686 -1885 l26 -20 0 -245 0 -244 255 0 255 0 0 240 0 241 25 24 c13 14 36 25 50 25 14 0 37 -11 50 -25 l25 -24 0 -316 0 -315 1275 0 1275 0 0 315 0 316 25 24 c30 30 64 32 99 4 l26 -20 0 -245 0 -244 255 0 255 0 0 240 0 241 25 24 c31 32 69 32 100 0 l25 -24 0 -2083 c0 -2271 4 -2117 -55 -2132 -29 -7 -79 15 -89 39 -3 9 -6 124 -6 256 l0 239 -255 0 -255 0 0 -248 c0 -225 -2 -250 -17 -264 -42 -37 -101 -28 -122 19 -7 16 -11 127 -11 328 l0 305 -1275 0 -1275 0 0 -309 c0 -170 -3 -317 -6 -326 -10 -24 -60 -46 -89 -39 -52 13 -55 28 -55 291 l0 243 -255 0 -255 0 0 -241 c0 -150 -4 -248 -11 -260 -25 -48 -105 -44 -128 7 -8 18 -11 579 -11 2100 l0 2075 25 24 c30 30 64 32 99 4z"
       id="path4"
       style="fill:#ff2a2a" />
    <path
       d="M3460 6695 l0 -175 255 0 255 0 0 175 0 175 -255 0 -255 0 0 -175z"
       id="path6"
       style="fill:#ff2a2a" />
    <path
       d="M6820 6695 l0 -175 255 0 255 0 0 175 0 175 -255 0 -255 0 0 -175z"
       id="path8"
       style="fill:#ff2a2a" />
    <path
       d="M4120 5430 l0 -1300 1275 0 1275 0 0 1300 0 1300 -1275 0 -1275 0 0 -1300z"
       id="path10"
       style="fill:#ff2a2a" />
    <path
       d="M3460 6190 l0 -180 255 0 255 0 0 180 0 180 -255 0 -255 0 0 -180z"
       id="path12"
       style="fill:#ff2a2a" />
    <path
       d="M6820 6190 l0 -180 255 0 255 0 0 180 0 180 -255 0 -255 0 0 -180z"
       id="path14"
       style="fill:#ff2a2a" />
    <path
       d="M3460 5680 l0 -180 255 0 255 0 0 180 0 180 -255 0 -255 0 0 -180z"
       id="path16"
       style="fill:#ff2a2a" />
    <path
       d="M6820 5680 l0 -180 255 0 255 0 0 180 0 180 -255 0 -255 0 0 -180z"
       id="path18"
       style="fill:#ff2a2a" />
    <path
       d="M3460 5175 l0 -175 255 0 255 0 0 175 0 175 -255 0 -255 0 0 -175z"
       id="path20"
       style="fill:#ff2a2a" />
    <path
       d="M6820 5175 l0 -175 255 0 255 0 0 175 0 175 -255 0 -255 0 0 -175z"
       id="path22"
       style="fill:#ff2a2a" />
    <path
       d="M3460 4665 l0 -175 255 0 255 0 0 175 0 175 -255 0 -255 0 0 -175z"
       id="path24"
       style="fill:#ff2a2a" />
    <path
       d="M6820 4665 l0 -175 255 0 255 0 0 175 0 175 -255 0 -255 0 0 -175z"
       id="path26"
       style="fill:#ff2a2a" />
    <path
       d="M3460 4160 l0 -180 255 0 255 0 0 180 0 180 -255 0 -255 0 0 -180z"
       id="path28"
       style="fill:#ff2a2a" />
    <path
       d="M6820 4160 l0 -180 255 0 255 0 0 180 0 180 -255 0 -255 0 0 -180z"
       id="path30"
       style="fill:#ff2a2a" />
  </g>
  <path
     style="fill:#ffffff;fill-opacity:1;stroke-width:1.52542377"
     d="m 664.00792,1274.322 c -19.03118,-1.6938 -54.39938,-7.9744 -77.11258,-13.6935 C 483.90266,1234.6953 393.52279,1182.6525 320.4307,1107.192 235.58497,1019.5969 183.20342,910.63169 167.16168,788.35836 c -3.32588,-25.35048 -3.31576,-111.4112 0.0161,-137.0161 13.31499,-102.3238 54.41848,-199.23097 118.59597,-279.60644 19.78832,-24.78276 60.53976,-65.54834 85.03763,-85.06713 86.01753,-68.53488 180.53042,-107.62008 291.37115,-120.49467 30.78237,-3.57549 105.78895,-2.34942 134.98478,2.20649 36.7887,5.74076 62.84559,11.80202 93.81356,21.82259 183.74733,59.45669 323.79313,210.21251 369.96713,398.26028 2.844,11.58249 7.0848,31.84143 9.4239,45.01983 4.195,23.63375 4.253,24.81426 4.253,86.50311 0,61.61316 -0.063,62.89643 -4.2311,86.373 -16.0858,90.59893 -48.4613,169.11856 -98.2654,238.32098 -42.5017,59.0559 -100.996,113.1946 -163.1574,151.0083 -70.66188,42.9846 -157.14026,71.9109 -235.44776,78.7553 -20.4413,1.7867 -88.92767,1.7104 -109.51533,-0.1219 z m 122.93082,-20.3203 c 10.31496,-1.3537 26.1031,-3.8665 35.08475,-5.5839 215.91081,-41.2842 386.91111,-212.8092 426.68331,-427.99254 11.5058,-62.2513 11.5058,-138.62658 0,-200.87787 C 1224.5563,488.88364 1150.7952,370.73745 1042.5174,289.28517 958.29702,225.93021 860.61979,189.8104 757.2869,183.81052 c -40.92613,-2.37632 -70.72263,-1.89464 -98.45764,1.59162 -67.58925,8.49592 -119.96229,24.09574 -178.95008,53.30203 -144.67968,71.63445 -250.29187,206.42699 -285.06253,363.82453 -10.2008,46.17633 -10.86944,53.35483 -10.86956,116.69491 -1e-4,52.38261 0.29712,59.06743 3.52677,79.32204 9.28271,58.21611 23.69233,105.51006 46.70932,153.30508 67.11303,139.36087 189.41986,242.90667 337.19171,285.46877 31.06344,8.9471 64.65091,14.973 108.3348,19.4361 14.76085,1.5081 89.35044,-0.4075 107.22905,-2.7539 z"
     id="path25"
     inkscape:connector-curvature="0"
     transform="scale(0.75)" />
  <path
     style="fill:#ffffff;fill-opacity:1;stroke-width:1.52542377"
     d="m 446.23006,997.73648 c -2.91241,-2.12953 -2.96105,-6.74339 -2.96105,-280.89462 V 438.11234 l 4.03669,-3.0139 c 3.9386,-2.94067 4.15174,-2.94594 8.77119,-0.21717 l 4.7345,2.79674 v 33.23043 33.23043 h 34.32203 34.32203 v -32.69274 -32.69274 l 4.60447,-3.27867 c 4.55783,-3.24546 4.6544,-3.24952 9.5339,-0.40048 l 4.92943,2.87818 0.40511,43.00848 0.40511,43.00848 H 719.39446 889.45545 V 481.23509 438.5008 l 4.77545,-2.90412 c 4.96527,-3.01956 7.86261,-2.75543 12.38557,1.12912 2.38739,2.05041 2.66949,5.73353 2.66949,34.85288 v 32.56019 h 34.29229 34.29229 l 0.4111,-33.01473 0.4111,-33.01473 4.19492,-3.13057 4.19491,-3.13057 4.19492,3.1322 4.19491,3.13221 v 278.55206 c 0,256.09845 -0.20158,278.75365 -2.50085,281.05271 -3.60104,3.60065 -11.71767,1.57538 -13.60758,-3.39546 -0.78867,-2.07436 -1.43394,-17.7989 -1.43394,-34.94345 v -31.17188 h -34.08039 -34.08038 l -0.95554,33.0039 c -0.80863,27.93019 -1.35114,33.44104 -3.52891,35.84746 -3.30995,3.65748 -8.5407,3.63268 -11.87917,-0.0563 -2.29855,-2.53986 -2.73627,-8.12631 -3.52594,-45 l -0.90157,-42.10015 H 719.35179 549.72546 l -1.05638,42.33051 c -1.003,40.19145 -1.21535,42.4654 -4.2023,45 -3.47982,2.95282 -6.9822,3.35942 -10.3874,1.2058 -2.85586,-1.80617 -4.37113,-17.82377 -4.51539,-47.73123 l -0.10854,-22.5 H 495.2828 461.11015 l -0.53074,33.68317 c -0.49228,31.24271 -0.74527,33.83999 -3.49178,35.84746 -3.75587,2.74522 -7.10234,2.74502 -10.85757,-8.1e-4 z M 529.45545,885.4948 v -24.40678 h -34.32203 -34.32203 v 24.40678 24.40678 h 34.32203 34.32203 z m 448.47458,0 v -24.40678 h -34.32204 -34.32203 v 24.40678 24.40678 h 34.32203 34.32204 z M 889.45545,716.17276 V 542.27446 H 719.37071 549.28596 v 173.8983 173.89831 h 170.08475 170.08474 z m -360,102.20339 v -24.40678 h -34.32203 -34.32203 v 24.40678 24.40678 h 34.32203 34.32203 z m 448.47458,0 v -24.40678 h -34.32204 -34.32203 v 24.40678 24.40678 h 34.32203 34.32204 z M 529.45545,749.73209 v -24.40678 h -34.32203 -34.32203 v 24.40678 24.40678 h 34.32203 34.32203 z m 448.47458,0 v -24.40678 h -34.32204 -34.32203 v 24.40678 24.40678 h 34.32203 34.32204 z M 529.45545,682.61344 v -24.40678 h -34.32203 -34.32203 v 24.40678 24.40678 h 34.32203 34.32203 z m 448.47458,0 v -24.40678 h -34.32204 -34.32203 v 24.40678 24.40678 h 34.32203 34.32204 z M 529.45545,614.73209 V 589.5626 h -34.32203 -34.32203 v 25.16949 25.16949 h 34.32203 34.32203 z m 448.47458,0 V 589.5626 h -34.32204 -34.32203 v 25.16949 25.16949 h 34.32203 34.32204 z M 529.45545,547.61344 v -23.64406 h -34.32203 -34.32203 v 23.64406 23.64407 h 34.32203 34.32203 z m 448.47458,0 v -23.64406 h -34.32204 -34.32203 v 23.64406 23.64407 h 34.32203 34.32204 z"
     id="path27"
     inkscape:connector-curvature="0"
     transform="scale(0.75)" />
</svg>
