<?xml version="1.0" encoding="UTF-8" standalone="no"?>
<svg
   xmlns:dc="http://purl.org/dc/elements/1.1/"
   xmlns:cc="http://creativecommons.org/ns#"
   xmlns:rdf="http://www.w3.org/1999/02/22-rdf-syntax-ns#"
   xmlns:svg="http://www.w3.org/2000/svg"
   xmlns="http://www.w3.org/2000/svg"
   xmlns:sodipodi="http://sodipodi.sourceforge.net/DTD/sodipodi-0.dtd"
   xmlns:inkscape="http://www.inkscape.org/namespaces/inkscape"
   version="1.0"
   width="1080.000000pt"
   height="1080.000000pt"
   viewBox="0 0 1080.000000 1080.000000"
   preserveAspectRatio="xMidYMid meet"
   id="svg12"
   sodipodi:docname="rcff_yrityksille_1080p.svg"
   inkscape:version="0.92.4 (5da689c313, 2019-01-14)">
  <defs
     id="defs16" />
  <sodipodi:namedview
     pagecolor="#ffffff"
     bordercolor="#666666"
     borderopacity="1"
     objecttolerance="10"
     gridtolerance="10"
     guidetolerance="10"
     inkscape:pageopacity="0"
     inkscape:pageshadow="2"
     inkscape:window-width="1920"
     inkscape:window-height="1017"
     id="namedview14"
     showgrid="false"
     inkscape:zoom="0.46354778"
     inkscape:cx="213.7728"
     inkscape:cy="686.38433"
     inkscape:window-x="1912"
     inkscape:window-y="-8"
     inkscape:window-maximized="1"
     inkscape:current-layer="svg12" />
  <metadata
     id="metadata2">
Created by potrace 1.16, written by Peter Selinger 2001-2019
<rdf:RDF>
  <cc:Work
     rdf:about="">
    <dc:format>image/svg+xml</dc:format>
    <dc:type
       rdf:resource="http://purl.org/dc/dcmitype/StillImage" />
  </cc:Work>
</rdf:RDF>
</metadata>
  <g
     transform="translate(0.000000,1080.000000) scale(0.100000,-0.100000)"
     fill="#000000"
     stroke="none"
     id="g10"
     style="fill:#b27a03;fill-opacity:1">
    <path
       d="M4916 10784 c-903 -82 -1756 -381 -2508 -881 -306 -202 -550 -404 -829 -682 -342 -343 -590 -662 -838 -1076 -96 -160 -285 -544 -359 -730 -196 -491 -319 -1011 -366 -1545 -21 -232 -21 -708 0 -940 80 -912 377 -1763 881 -2522 202 -306 404 -550 682 -829 434 -433 862 -743 1401 -1013 623 -311 1252 -489 1950 -550 232 -21 708 -21 940 0 912 80 1763 377 2522 881 306 202 550 404 829 682 442 443 749 870 1024 1426 304 615 479 1239 539 1925 32 362 17 893 -35 1250 -114 788 -405 1548 -846 2212 -202 306 -404 550 -682 829 -419 418 -833 721 -1346 985 -635 327 -1290 516 -2005 578 -218 20 -742 19 -954 0z m885 -1220 c576 -54 1157 -236 1653 -515 152 -86 423 -270 566 -385 174 -139 506 -471 644 -644 515 -646 823 -1406 900 -2219 21 -214 21 -588 0 -802 -77 -811 -388 -1579 -900 -2219 -139 -174 -471 -507 -644 -644 -143 -115 -415 -299 -566 -385 -400 -225 -884 -397 -1344 -475 -442 -76 -978 -76 -1420 0 -460 78 -944 250 -1344 475 -151 86 -423 270 -566 385 -173 138 -506 471 -644 644 -115 143 -299 415 -385 566 -225 400 -397 884 -475 1344 -76 442 -76 978 0 1420 78 460 250 944 475 1344 86 151 270 423 385 566 138 173 471 506 644 644 143 115 415 299 566 385 488 275 1074 460 1639 515 198 19 613 20 816 0z"
       id="path4"
       style="fill:#b27a03;fill-opacity:1" />
    <path
       d="M5135 9424 c-860 -69 -1609 -363 -2270 -892 -154 -124 -473 -443 -597 -597 -429 -536 -712 -1149 -832 -1805 -49 -269 -60 -403 -60 -730 0 -327 11 -461 60 -730 120 -656 403 -1269 832 -1805 124 -154 443 -473 597 -597 612 -490 1298 -778 2085 -875 205 -25 695 -25 900 0 787 97 1473 385 2085 875 154 124 473 443 597 597 429 536 712 1149 832 1805 49 269 60 403 60 730 0 232 -4 340 -17 450 -73 593 -251 1118 -546 1613 -177 297 -352 519 -616 782 -263 264 -485 439 -782 616 -492 293 -1023 473 -1603 544 -129 16 -607 28 -725 19z m1625 -2510 c489 -85 915 -462 1068 -944 43 -138 62 -263 62 -419 0 -221 -40 -409 -126 -591 -206 -436 -592 -721 -1066 -788 l-118 -17 0 -342 c0 -330 -1 -344 -20 -363 -25 -25 -86 -27 -112 -3 -17 15 -18 82 -18 1734 l0 1718 28 21 c25 21 34 22 122 15 52 -3 133 -13 180 -21z m-3933 -9 c15 -10 204 -473 653 -1597 348 -871 637 -1592 643 -1602 8 -16 136 298 649 1580 406 1015 647 1605 660 1617 28 23 73 22 99 -4 18 -18 20 -29 16 -68 -6 -51 -1322 -3349 -1350 -3381 -23 -27 -107 -28 -130 -2 -24 26 -1357 3368 -1357 3402 0 57 68 89 117 55z m3218 -10 l25 -24 0 -1694 0 -1694 -21 -27 c-27 -34 -86 -37 -115 -5 -19 21 -19 63 -19 1726 l0 1705 24 19 c32 26 77 24 106 -6z"
       id="path6"
       style="fill:#b27a03;fill-opacity:1" />
    <path
       d="M6580 5545 l0 -1236 53 7 c542 67 967 454 1083 986 25 114 29 314 10 433 -75 451 -385 824 -814 979 -79 28 -251 66 -301 66 l-31 0 0 -1235z"
       id="path8"
       style="fill:#b27a03;fill-opacity:1" />
  </g>
  <path
     style="fill:#ffffff;fill-opacity:1;stroke-width:1.52542377"
     d="m 544.33197,980.01971 c -2.79084,-2.20183 -14.82657,-31.51262 -83.1514,-202.5 -85.80081,-214.72214 -99.4656,-250.30137 -97.65695,-254.27093 1.79136,-3.9316 5.86144,-5.68738 10.08012,-4.34842 4.33977,1.37739 1.63565,-5.11209 100.03517,240.0694 41.19317,102.64076 75.56473,186.64838 76.38125,186.6836 2.28606,0.0986 12.95427,-25.56089 80.05075,-192.54043 56.53916,-140.70605 87.89594,-217.88137 93.13809,-229.23149 3.80261,-8.23326 15.16013,-6.6759 15.16013,2.07878 0,6.35949 -31.90768,88.05749 -123.86603,317.15271 -47.09128,117.31815 -54.34894,134.66594 -57.27666,136.90678 -1.3702,1.04872 -4.28818,1.90678 -6.48442,1.90678 -2.19625,0 -5.08076,-0.85806 -6.41005,-1.90678 z"
     id="path10"
     inkscape:connector-curvature="0"
     transform="scale(0.75)" />
  <path
     style="fill:#ffffff;fill-opacity:1;stroke-width:1.52542377"
     d="m 792.88156,979.78031 c -2.88168,-2.88168 -4.16935,-95.98166 -4.17168,-301.61906 l -0.002,-155.03643 3.75989,-2.46357 c 5.17966,-3.39385 8.85177,-3.08665 12.75387,1.06694 l 3.31675,3.53052 v 225.01714 225.01713 l -3.53052,3.31676 c -4.05006,3.80482 -9.01321,4.28391 -12.12655,1.17057 z"
     id="path12"
     inkscape:connector-curvature="0"
     transform="scale(0.75)" />
  <path
     style="fill:#ffffff;fill-opacity:1;stroke-width:1.52542377"
     d="m 861.92846,980.43425 c -2.68758,-1.69784 -3.64294,-72.46886 -4.24595,-314.52954 l -0.35975,-144.41161 4.11544,-3.23721 c 3.63003,-2.85538 5.38601,-3.12661 14.88759,-2.29954 29.99433,2.61086 47.85278,7.3437 71.78911,19.0255 43.27273,21.11868 79.4176,62.6817 94.3469,108.48959 11.548,35.43312 11.3003,80.52406 -0.6378,116.08686 -12.0542,35.9089 -40.1595,72.60869 -71.68143,93.60154 -23.60332,15.71925 -45.98245,24.37409 -76.18022,29.46171 l -16.01694,2.69849 -0.93722,42.58288 c -0.51547,23.42059 -1.0303,44.07835 -1.14407,45.90613 -0.41333,6.64049 -8.11536,10.30213 -13.93566,6.6252 z M 905.45001,861.3735 c 53.08579,-13.41622 96.41489,-50.92963 115.29939,-99.82376 9.3844,-24.29703 10.8959,-32.74313 10.9285,-61.06393 0.025,-21.47235 -0.5088,-27.90787 -3.1017,-37.41986 -10.4845,-38.46117 -29.97653,-69.09351 -58.6735,-92.20726 -22.03621,-17.74889 -54.98369,-31.54127 -83.94882,-35.1424 l -8.77119,-1.09049 v 165.794 165.79401 l 8.77119,-1.06492 c 4.82415,-0.5857 13.59741,-2.28463 19.49613,-3.77539 z"
     id="path14"
     inkscape:connector-curvature="0"
     transform="scale(0.75)" />
  <path
     style="fill:#ffffff;fill-opacity:1;stroke-width:1.52542377"
     d="m 662.49282,1274.0739 c -102.97463,-10.6838 -203.5825,-51.4474 -286.86091,-116.2284 -16.71681,-13.0037 -68.52954,-63.78 -84.25971,-82.5741 -67.81798,-81.02797 -110.61918,-180.51977 -124.48295,-289.36186 -3.35232,-26.31844 -3.83991,-99.16263 -0.83727,-125.08475 10.50247,-90.66902 39.77728,-172.39918 87.49138,-244.26062 22.44766,-33.80808 34.52226,-49.27352 58.00063,-74.28867 94.33461,-100.50932 212.27718,-160.42293 345.9612,-175.74473 32.47532,-3.72206 112.39593,-2.48834 142.64361,2.20196 97.14204,15.06319 183.14092,51.63398 260.8475,110.92468 26.6821,20.35873 73.5111,66.64772 95.4887,94.38772 57.8685,73.04119 97.3375,161.83533 112.5563,253.22034 5.8918,35.37912 6.8645,48.44302 6.8716,92.28813 0.01,59.4971 -5.4735,100.62806 -20.3349,152.54238 -19.5269,68.21222 -48.2397,125.76362 -92.0864,184.57622 -19.0072,25.4947 -77.2393,84.5031 -101.5501,102.9038 -82.98218,62.8086 -172.63363,100.1123 -271.70796,113.0568 -26.2686,3.4321 -100.48135,4.2694 -127.74072,1.4411 z m 123.92716,-20.0008 c 106.02456,-12.9552 211.97572,-60.8532 289.35562,-130.8106 20.7649,-18.773 50.8879,-50.2166 64.7287,-67.5663 64.1429,-80.40421 105.5686,-182.04194 114.9341,-281.99005 1.9888,-21.22466 2.001,-89.95621 0.019,-109.0678 -10.2787,-99.13146 -48.7607,-194.85514 -110.3828,-274.57627 -15.7491,-20.37469 -71.5654,-76.58624 -92.3125,-92.96615 -69.87089,-55.16325 -154.38966,-92.51511 -243.73555,-107.71542 -40.0964,-6.82156 -108.06921,-8.90124 -146.17554,-4.47236 -102.71988,11.93855 -193.2221,48.7035 -275.32963,111.84784 -17.6012,13.5361 -77.76605,73.89106 -91.49158,91.78067 -58.97387,76.86546 -93.66705,158.28894 -109.19284,256.27118 -3.3857,21.36696 -4.80808,102.34988 -2.27379,129.45771 9.32689,99.76405 51.07676,201.63743 115.68344,282.27795 14.20857,17.7348 49.08864,53.6875 69.34878,71.4815 83.48214,73.3203 201.17888,121.8792 311.57005,128.5463 26.52082,1.6017 82.59256,0.2709 105.25424,-2.4982 z"
     id="path16"
     inkscape:connector-curvature="0"
     transform="scale(0.75)" />
</svg>
