<svg xmlns="http://www.w3.org/2000/svg" xmlns:xlink="http://www.w3.org/1999/xlink" viewBox="0 0 247 236"><defs><style>.cls-1{fill:none;}.cls-2{fill:#fff;}.cls-3{clip-path:url(#clip-path);}.cls-4{fill:#ff3c2b;}</style><clipPath id="clip-path"><rect class="cls-1" x="36.59" y="31.09" width="173.83" height="173.83"/></clipPath></defs><g id="extra_ikonit_muut" data-name="extra ikonit muut"><circle class="cls-2" cx="123.5" cy="118" r="86"/><g class="cls-3"><path class="cls-4" d="M123.5,204.91A86.91,86.91,0,1,1,210.41,118,87,87,0,0,1,123.5,204.91Zm0-170.82A83.91,83.91,0,1,0,207.41,118,84,84,0,0,0,123.5,34.09Z"/></g><rect class="cls-4" x="122" y="92.62" width="3" height="73.38"/><path class="cls-4" d="M177.64,95,69.35,94.43l1.37-2.26c3.51-5.81,22.69-34.71,54.34-33.64h0c30,1,47.94,28.69,51.23,34.23ZM74.72,91.46l97.56.55c-5.4-8.24-21.82-29.61-47.32-30.48C97.86,60.61,80.39,83,74.72,91.46Z"/><rect class="cls-4" x="92.24" y="124.63" width="62.51" height="3"/><rect class="cls-4" x="70.66" y="112.21" width="3" height="53.77"/><polygon class="cls-4" points="97.63 166 97.28 144.06 72.34 144.06 72.34 141.06 100.23 141.06 100.63 165.95 97.63 166"/><rect class="cls-4" x="72" y="149.91" width="26.41" height="3"/><rect class="cls-4" x="173.5" y="112.21" width="3" height="53.77"/><polygon class="cls-4" points="149.52 166 146.52 165.95 146.92 141.06 174.81 141.06 174.81 144.06 149.88 144.06 149.52 166"/><rect class="cls-4" x="148.22" y="149.96" width="26.41" height="3"/></g></svg>