<svg xmlns="http://www.w3.org/2000/svg" xmlns:xlink="http://www.w3.org/1999/xlink" viewBox="0 0 247 236"><defs><style>.cls-1,.cls-4{fill:none;}.cls-2{clip-path:url(#clip-path);}.cls-3{fill:#1e1916;}.cls-4{stroke:#fff;stroke-linecap:round;stroke-width:2.7px;}.cls-5{fill:#fff;}</style><clipPath id="clip-path"><rect class="cls-1" x="22.44" y="16.94" width="202.12" height="202.12"/></clipPath></defs><g id="extra_ikonit_muut" data-name="extra ikonit muut"><g class="cls-2"><path class="cls-3" d="M123.5,219.06A101.06,101.06,0,1,0,22.44,118,101.06,101.06,0,0,0,123.5,219.06"/><circle class="cls-4" cx="123.5" cy="118" r="76.87"/></g><path class="cls-5" d="M161,77.65A1.34,1.34,0,0,0,159.68,79v8.65h-9.6V79a1.35,1.35,0,1,0-2.7,0V90.4H99.48V79a1.35,1.35,0,0,0-2.7,0v8.65h-9.6V79a1.35,1.35,0,0,0-2.7,0v77a1.35,1.35,0,1,0,2.7,0v-8.65h9.6V156a1.35,1.35,0,0,0,2.7,0V144.6h47.9V156a1.35,1.35,0,0,0,2.7,0v-8.65h9.6V156a1.35,1.35,0,1,0,2.7,0V79A1.35,1.35,0,0,0,161,77.65Zm-10.95,41.2h9.6v6.8h-9.6Zm0-2.7v-6.8h9.6v6.8Zm0-9.5v-6.8h9.6v6.8Zm0,21.7h9.6v6.8h-9.6Zm9.6-38v6.8h-9.6v-6.8Zm-62.9,28.5v6.8h-9.6v-6.8Zm-9.6-2.7v-6.8h9.6v6.8Zm9.6-9.5h-9.6v-6.8h9.6Zm-9.6,21.7h9.6v6.8h-9.6Zm9.6-38v6.8h-9.6v-6.8Zm-9.6,54.3v-6.8h9.6v6.8Zm12.3-2.75V93.1h47.9v48.8Zm50.6,2.75v-6.8h9.6v6.8Z"/></g></svg>