<?xml version="1.0" encoding="UTF-8" standalone="no"?>
<svg
   xmlns:dc="http://purl.org/dc/elements/1.1/"
   xmlns:cc="http://creativecommons.org/ns#"
   xmlns:rdf="http://www.w3.org/1999/02/22-rdf-syntax-ns#"
   xmlns:svg="http://www.w3.org/2000/svg"
   xmlns="http://www.w3.org/2000/svg"
   xmlns:sodipodi="http://sodipodi.sourceforge.net/DTD/sodipodi-0.dtd"
   xmlns:inkscape="http://www.inkscape.org/namespaces/inkscape"
   version="1.0"
   width="1080.000000pt"
   height="1080.000000pt"
   viewBox="0 0 1080.000000 1080.000000"
   preserveAspectRatio="xMidYMid meet"
   id="svg18"
   sodipodi:docname="rcff_oheistapahtumat_1080p.svg"
   inkscape:version="0.92.4 (5da689c313, 2019-01-14)">
  <defs
     id="defs22" />
  <sodipodi:namedview
     pagecolor="#ffffff"
     bordercolor="#666666"
     borderopacity="1"
     objecttolerance="10"
     gridtolerance="10"
     guidetolerance="10"
     inkscape:pageopacity="0"
     inkscape:pageshadow="2"
     inkscape:window-width="1920"
     inkscape:window-height="1017"
     id="namedview20"
     showgrid="false"
     inkscape:zoom="0.32777778"
     inkscape:cx="16.228147"
     inkscape:cy="637.60301"
     inkscape:window-x="1912"
     inkscape:window-y="-8"
     inkscape:window-maximized="1"
     inkscape:current-layer="svg18" />
  <metadata
     id="metadata2">
Created by potrace 1.16, written by Peter Selinger 2001-2019
<rdf:RDF>
  <cc:Work
     rdf:about="">
    <dc:format>image/svg+xml</dc:format>
    <dc:type
       rdf:resource="http://purl.org/dc/dcmitype/StillImage" />
  </cc:Work>
</rdf:RDF>
</metadata>
  <g
     transform="matrix(0.1,0,0,-0.1,0,1080)"
     id="g16"
     style="fill:#163462;stroke:none;fill-opacity:1">
    <path
       d="M 4916,10784 C 4013,10702 3160,10403 2408,9903 2102,9701 1858,9499 1579,9221 1146,8787 836,8359 566,7820 255,7197 77,6568 16,5870 -5,5638 -5,5162 16,4930 96,4018 393,3167 897,2408 1099,2102 1301,1858 1579,1579 2022,1137 2449,830 3005,555 3620,251 4244,76 4930,16 c 232,-21 708,-21 940,0 686,60 1310,235 1925,539 556,275 983,582 1426,1024 442,443 749,870 1024,1426 304,615 479,1239 539,1925 32,362 17,893 -35,1250 -115,793 -402,1544 -846,2212 -202,306 -404,550 -682,829 -434,433 -862,743 -1401,1013 -623,311 -1252,489 -1950,550 -218,20 -742,19 -954,0 z m 954,-1229 c 191,-23 357,-53 513,-91 914,-223 1715,-737 2301,-1477 423,-534 722,-1203 835,-1867 46,-270 56,-393 56,-720 0,-395 -26,-629 -106,-965 C 9250,3517 8731,2706 7987,2116 7453,1693 6784,1394 6120,1281 c -270,-46 -393,-56 -720,-56 -395,0 -629,26 -965,106 -918,219 -1729,738 -2319,1482 -423,534 -722,1203 -835,1867 -46,270 -56,393 -56,720 0,395 26,629 106,965 261,1093 947,2032 1911,2616 559,339 1188,537 1883,593 114,9 625,-4 745,-19 z"
       id="path4"
       style="fill:#163462;fill-opacity:1"
       inkscape:connector-curvature="0" />
    <path
       d="M 5095,9424 C 4708,9384 4453,9334 4160,9239 3294,8957 2554,8398 2050,7645 1696,7117 1486,6557 1398,5910 c -31,-225 -33,-767 -5,-985 64,-488 193,-918 397,-1325 532,-1061 1505,-1839 2650,-2118 344,-84 548,-107 960,-107 412,0 616,23 960,107 1453,354 2604,1505 2958,2958 84,344 107,548 107,960 0,412 -23,616 -107,960 -368,1510 -1595,2689 -3118,2994 -267,54 -413,68 -750,71 -173,1 -333,1 -355,-1 z M 4647,7609 c 38,-14 92,-67 109,-106 10,-24 14,-82 14,-218 v -185 h 724 724 l 4,193 c 4,205 8,226 60,274 51,48 81,53 333,53 178,0 243,-3 268,-14 39,-17 92,-71 106,-109 6,-16 11,-107 11,-212 v -184 l 228,-3 c 210,-3 230,-5 267,-25 47,-25 85,-64 111,-113 18,-34 19,-95 19,-1735 V 3525 l -28,-47 c -31,-53 -79,-94 -134,-114 -31,-11 -381,-13 -1964,-14 -2152,0 -1976,-6 -2056,72 -85,83 -78,-78 -78,1808 v 1675 l 21,46 c 12,25 38,62 59,82 61,59 100,67 336,67 h 207 l 4,193 c 4,205 8,226 60,274 51,48 78,52 330,53 144,0 248,-4 265,-11 z"
       id="path6"
       style="fill:#163462;fill-opacity:1"
       inkscape:connector-curvature="0" />
    <path
       d="m 4152,7458 c -9,-9 -12,-95 -12,-339 0,-284 2,-330 16,-343 13,-14 48,-16 228,-16 169,0 216,3 225,14 8,9 11,110 9,352 l -3,339 -225,3 c -167,2 -229,-1 -238,-10 z"
       id="path8"
       style="fill:#163462;fill-opacity:1"
       inkscape:connector-curvature="0" />
    <path
       d="m 6382,7458 c -9,-9 -12,-98 -12,-339 0,-284 2,-330 16,-343 13,-14 48,-16 228,-16 151,0 215,3 224,12 9,9 12,98 12,339 0,180 -3,334 -6,343 -5,14 -35,16 -228,16 -159,0 -225,-3 -234,-12 z"
       id="path10"
       style="fill:#163462;fill-opacity:1"
       inkscape:connector-curvature="0" />
    <path
       d="m 4770,6863 c 0,-116 -18,-165 -76,-209 l -37,-29 -260,-3 c -182,-2 -269,1 -289,9 -40,16 -95,81 -107,126 -6,21 -11,73 -11,116 v 77 h -206 c -122,0 -213,-4 -225,-10 -47,-26 -49,-43 -49,-470 v -400 h 1985 1985 v 411 411 l -29,29 -29,29 h -211 -211 v -92 c 0,-111 -19,-161 -76,-204 l -37,-29 -260,-3 c -182,-2 -269,1 -289,9 -40,16 -95,81 -107,126 -6,21 -11,75 -11,121 v 82 h -725 -725 z"
       id="path12"
       style="fill:#163462;fill-opacity:1"
       inkscape:connector-curvature="0" />
    <path
       d="m 3510,4749 c 0,-842 3,-1176 11,-1192 6,-12 21,-30 33,-39 20,-17 137,-18 1944,-18 h 1924 l 29,29 29,29 V 4739 5920 H 5495 3510 Z m 3120,841 c 48,-48 65,-25 -656,-882 -372,-442 -689,-815 -705,-830 -29,-27 -68,-35 -104,-22 -9,4 -149,146 -311,317 -282,296 -295,311 -292,345 4,44 44,78 81,68 15,-3 130,-116 292,-286 l 266,-280 670,795 c 650,771 671,795 704,795 22,0 43,-8 55,-20 z"
       id="path14"
       style="fill:#163462;fill-opacity:1"
       inkscape:connector-curvature="0" />
  </g>
  <path
     style="fill:#ffffff;fill-opacity:1;stroke-width:1.52542377"
     d="m 476.58305,990.62207 c -7.61851,-0.87721 -10.56146,-2.06083 -15.25424,-6.13504 -11.31607,-9.82448 -10.34569,11.76649 -10.80585,-240.42983 l -0.41502,-227.45407 5.07269,-7.46118 c 8.44655,-12.4236 12.65918,-13.75806 47.56318,-15.06679 l 29.80434,-1.11753 0.0822,-15.46893 c 0.0452,-8.50792 0.65389,-20.92563 1.35256,-27.59492 1.20456,-11.49833 1.58403,-12.41861 7.3311,-17.77942 5.26613,-4.9122 7.36411,-5.79302 16.0012,-6.71797 5.46723,-0.58549 21.57736,-0.82204 35.8003,-0.52566 25.3468,0.52817 25.96674,0.62039 31.24514,4.64767 9.21543,7.03116 10.39085,11.46716 10.39085,39.21495 v 24.5576 h 97.62712 97.62711 l 0.0307,-17.92373 c 0.0169,-9.85805 0.67139,-22.38559 1.45448,-27.83898 1.25083,-8.71066 2.14775,-10.59269 7.38267,-15.49129 5.16245,-4.83078 7.28744,-5.71831 15.89928,-6.64056 5.46722,-0.58549 21.52318,-0.82204 35.67987,-0.52566 25.47383,0.5333 25.79708,0.58294 31.32205,4.80976 9.34068,7.14598 10.43438,11.23935 10.43438,39.05286 0,13.50668 0.51483,24.62609 1.14407,24.70981 0.62924,0.0837 14.9333,0.59855 31.78683,1.14407 30.17556,0.97673 30.73375,1.05543 36.61014,5.16201 3.2821,2.29359 7.6835,6.70485 9.781,9.80279 l 3.8136,5.63263 0.4509,226.96671 c 0.4229,212.8514 0.287,227.23087 -2.1846,231.21416 -4.0689,6.55734 -10.0099,12.6551 -15.046,15.44296 -4.20941,2.33022 -24.93688,2.54802 -258.55933,2.71689 -139.69067,0.10098 -258.2309,-0.30551 -263.42272,-0.90331 z m 517.68882,-20.13939 3.53051,-3.31676 V 808.78776 650.40959 H 732.25058 466.69876 l 0.50944,157.7218 c 0.48808,151.11061 0.62812,157.85289 3.34075,160.84975 1.55764,1.72086 5.33182,3.39282 8.38983,3.71671 3.05718,0.32379 119.46343,0.70411 258.68054,0.84515 l 253.12203,0.25642 z m 3.53051,-394.33918 c 0,-55.35702 -0.0358,-55.99911 -3.31674,-59.49153 -3.24507,-3.4542 -3.95399,-3.53051 -32.79661,-3.53051 h -29.47987 v 12.25238 c 0,14.53385 -2.30764,20.94673 -9.51603,26.44484 l -5.26346,4.01464 h -36.32103 -36.32101 l -5.78947,-6.086 c -6.82677,-7.17642 -8.9723,-13.82866 -8.98387,-27.85468 l -0.009,-10.29661 h -97.62711 -97.62712 v 13.0151 c 0,15.01386 -2.07522,21.21937 -9.06216,27.0985 l -4.90073,4.12369 h -35.8763 c -33.53721,0 -36.15814,-0.20069 -40.19915,-3.07814 -7.81348,-5.56369 -10.9074,-12.58207 -11.79115,-26.74752 l -0.80394,-12.8862 h -28.47648 c -21.7081,0 -29.15599,0.49687 -31.33539,2.09048 -4.25078,3.10825 -5.07771,13.94813 -5.22259,68.46036 l -0.12872,48.43221 H 732.37866 997.80238 Z M 614.61594,537.22315 c 1.34155,-1.34155 1.83051,-13.93197 1.83051,-47.13454 v -45.30402 l -19.34108,-1.11555 c -19.56444,-1.12844 -42.58053,-0.32026 -44.46344,1.56127 -0.56429,0.56387 -1.02599,20.76892 -1.02599,44.9001 0,34.94448 0.42613,44.38865 2.09356,46.39906 1.81126,2.18381 5.93549,2.52419 30.58475,2.52419 20.12591,0 29.02864,-0.53746 30.32169,-1.83051 z m 297.70905,-1.12006 c 0.98288,-1.83654 1.57909,-19.41703 1.57909,-46.56317 V 445.9273 l -4.19492,-1.61314 c -4.89865,-1.88375 -57.40628,-1.29015 -59.366,0.67115 -0.69827,0.69884 -1.26959,21.48849 -1.26959,46.19921 0,38.27651 0.33878,45.14282 2.28814,46.37551 1.25847,0.7958 15.13475,1.45742 30.83616,1.47027 26.67643,0.0218 28.65155,-0.17008 30.12712,-2.92721 z"
     id="path13"
     inkscape:connector-curvature="0"
     transform="scale(0.75)" />
  <path
     style="fill:#ffffff;fill-opacity:1;stroke-width:1.52542377"
     d="m 665.47845,901.16065 c -36.22781,-37.16768 -56.65912,-59.85823 -56.65912,-62.92433 0,-3.15846 5.39079,-9.35215 8.13982,-9.35215 1.71608,0 40.87923,38.77741 66.72104,66.06386 l 9.83602,10.38587 35.76318,-42.41977 c 97.40958,-115.54046 126.69948,-149.98032 135.61455,-159.45928 10.26018,-10.90916 14.45963,-12.59173 18.97479,-7.60254 2.23491,2.46956 2.24864,3.16288 0.14354,7.24577 -4.49291,8.71359 -27.13016,36.28901 -118.91373,144.85388 -62.78299,74.26195 -62.98581,74.4974 -65.18504,75.6726 -8.31281,4.44212 -8.02886,4.62736 -34.43505,-22.46391 z"
     id="path15"
     inkscape:connector-curvature="0"
     transform="scale(0.75)" />
  <path
     style="fill:#ffffff;fill-opacity:1;stroke-width:1.52542377"
     d="m 676.70069,1274.834 c -36.38715,-2.9013 -59.14484,-6.645 -93.05085,-15.3073 C 397.34891,1211.9309 250.21685,1073.7101 190.12146,889.83281 169.37292,826.34734 161.91542,766.56509 165.01196,688.54518 167.99049,613.49862 186.81967,542.40717 222.67477,470.83351 274.63041,367.12008 357.07823,282.87688 460.85323,227.46847 529.87626,190.61513 618.4717,166.71756 695.00577,164.3086 c 31.40758,-0.98857 82.48952,1.36124 106.01695,4.87687 186.06861,27.80363 346.79728,148.65457 424.92088,319.49539 21.9534,48.00775 36.3287,96.29106 45.1513,151.65297 2.5297,15.87411 3.3374,29.46501 3.9218,65.9952 1.042,65.13552 -1.9171,95.34527 -14.2432,145.41433 -29.526,119.93458 -97.8353,226.54884 -194.5868,303.70284 -83.44887,66.5459 -190.14243,109.6424 -294.14703,118.814 -15.83248,1.3962 -80.168,1.7834 -95.33898,0.5738 z m 91.52542,-18.8486 c 77.31978,-5.4888 161.69077,-33.154 231.86439,-76.0281 61.051,-37.3005 117.6359,-90.2058 159.8388,-149.4448 48.2606,-67.74197 81.4533,-151.16727 93.5748,-235.18766 3.2261,-22.36233 4.5345,-98.38436 2.1949,-127.53201 -6.6764,-83.17519 -38.6203,-173.03429 -87.5201,-246.1968 C 1085.3167,297.61999 956.07192,213.78822 809.52377,188.96227 766.37844,181.65325 698.74872,180.00851 657.34569,185.26134 551.95544,198.63226 465.07794,235.06759 381.5312,300.93445 c -18.52119,14.6018 -64.68961,60.65457 -79.6747,79.47514 -58.04672,72.90391 -95.77411,154.95418 -111.52298,242.54237 -4.68908,26.07859 -5.76732,36.49888 -7.15817,69.17748 -2.49252,58.56294 1.55856,104.95436 13.54258,155.08407 36.40104,152.26729 141.43319,283.91669 283.28042,355.06929 57.52414,28.855 129.9607,49.3598 189.44456,53.6267 24.48181,1.7562 74.5718,1.7947 98.7832,0.076 z"
     id="path17"
     inkscape:connector-curvature="0"
     transform="scale(0.75)" />
</svg>
