<svg xmlns="http://www.w3.org/2000/svg" xmlns:xlink="http://www.w3.org/1999/xlink" viewBox="0 0 247 236"><defs><style>.cls-1,.cls-4{fill:none;}.cls-2{clip-path:url(#clip-path);}.cls-3{fill:#1e1916;}.cls-4{stroke:#fff;stroke-linecap:round;stroke-width:2.7px;}.cls-5{fill:#fff;}.cls-6{clip-path:url(#clip-path-2);}</style><clipPath id="clip-path"><rect class="cls-1" x="22.44" y="16.94" width="202.12" height="202.12"/></clipPath><clipPath id="clip-path-2"><rect class="cls-1" x="36.59" y="31.09" width="173.83" height="173.83"/></clipPath></defs><g id="extra_ikonit_muut" data-name="extra ikonit muut"><g class="cls-2"><path class="cls-3" d="M123.5,219.06A101.06,101.06,0,1,0,22.44,118,101.06,101.06,0,0,0,123.5,219.06"/><circle class="cls-4" cx="123.5" cy="118" r="76.87"/></g><rect class="cls-5" x="122" y="68.13" width="3" height="75"/><g class="cls-6"><path class="cls-5" d="M123.5,167.87a6.77,6.77,0,1,1,6.77-6.77A6.78,6.78,0,0,1,123.5,167.87Zm0-10.54a3.77,3.77,0,1,0,3.77,3.77A3.77,3.77,0,0,0,123.5,157.33Z"/></g></g></svg>