<?xml version="1.0" encoding="UTF-8" standalone="no"?>
<svg
   xmlns:dc="http://purl.org/dc/elements/1.1/"
   xmlns:cc="http://creativecommons.org/ns#"
   xmlns:rdf="http://www.w3.org/1999/02/22-rdf-syntax-ns#"
   xmlns:svg="http://www.w3.org/2000/svg"
   xmlns="http://www.w3.org/2000/svg"
   xmlns:sodipodi="http://sodipodi.sourceforge.net/DTD/sodipodi-0.dtd"
   xmlns:inkscape="http://www.inkscape.org/namespaces/inkscape"
   version="1.0"
   width="1080.000000pt"
   height="1080.000000pt"
   viewBox="0 0 1080.000000 1080.000000"
   preserveAspectRatio="xMidYMid meet"
   id="svg10"
   sodipodi:docname="rcff_liput_1080p.svg"
   inkscape:version="0.92.4 (5da689c313, 2019-01-14)">
  <defs
     id="defs14" />
  <sodipodi:namedview
     pagecolor="#ffffff"
     bordercolor="#666666"
     borderopacity="1"
     objecttolerance="10"
     gridtolerance="10"
     guidetolerance="10"
     inkscape:pageopacity="0"
     inkscape:pageshadow="2"
     inkscape:window-width="1920"
     inkscape:window-height="1017"
     id="namedview12"
     showgrid="false"
     inkscape:zoom="0.46354778"
     inkscape:cx="1006.9465"
     inkscape:cy="538.71451"
     inkscape:window-x="-8"
     inkscape:window-y="-8"
     inkscape:window-maximized="1"
     inkscape:current-layer="svg10" />
  <metadata
     id="metadata2">
Created by potrace 1.16, written by Peter Selinger 2001-2019
<rdf:RDF>
  <cc:Work
     rdf:about="">
    <dc:format>image/svg+xml</dc:format>
    <dc:type
       rdf:resource="http://purl.org/dc/dcmitype/StillImage" />
  </cc:Work>
</rdf:RDF>
</metadata>
  <g
     transform="translate(0.000000,1080.000000) scale(0.100000,-0.100000)"
     fill="#000000"
     stroke="none"
     id="g8">
    <path
       d="M4975 10789 c-1141 -90 -2226 -541 -3100 -1290 -154 -132 -442 -420 -574 -574 -756 -883 -1202 -1962 -1291 -3124 -13 -174 -13 -628 0 -802 89 -1162 535 -2241 1291 -3124 131 -153 419 -442 574 -574 878 -754 1964 -1202 3124 -1291 174 -13 628 -13 802 0 1153 88 2211 522 3099 1270 173 146 474 447 620 620 748 888 1182 1946 1270 3099 13 174 13 628 0 802 -89 1153 -523 2212 -1270 3099 -138 164 -431 459 -595 599 -880 754 -1964 1202 -3124 1291 -158 12 -667 11 -826 -1z m680 -179 c582 -31 1130 -149 1660 -357 188 -74 587 -271 765 -378 384 -231 679 -463 1005 -790 425 -425 717 -830 985 -1366 496 -996 658 -2101 469 -3209 -136 -801 -480 -1595 -978 -2255 -273 -362 -654 -743 -1016 -1016 -561 -423 -1217 -736 -1898 -904 -938 -231 -1933 -196 -2850 101 -256 83 -425 153 -692 284 -551 270 -957 561 -1390 995 -327 326 -559 621 -790 1005 -107 178 -304 577 -378 765 -442 1129 -481 2375 -111 3518 83 256 153 425 284 692 270 551 561 957 995 1390 326 327 621 559 1005 790 179 108 577 304 765 378 699 274 1443 396 2170 357z"
       id="path4"
       style="fill:#ff2a2a" />
    <path
       d="M3032 8483 c-35 -102 -435 -1230 -439 -1239 -2 -6 24 -21 59 -34 147 -52 297 -168 365 -282 59 -98 118 -88 -501 -88 l-546 0 0 -678 0 -679 105 -6 c181 -10 329 -74 454 -197 340 -333 251 -888 -175 -1103 -91 -46 -170 -66 -289 -74 l-95 -6 0 -634 0 -633 3430 0 3430 0 0 633 0 634 -95 6 c-119 8 -198 28 -289 74 -318 160 -463 522 -340 852 36 95 90 178 165 251 125 123 273 187 454 197 l105 6 0 679 0 678 -538 0 c-448 0 -544 2 -568 14 -33 17 -4660 1656 -4673 1656 -5 0 -13 -12 -19 -27z m2163 -922 c1105 -391 2011 -714 2014 -716 2 -3 -893 -5 -1990 -4 -1097 0 -1988 3 -1981 6 19 8 15 28 -22 101 -70 138 -181 259 -319 347 l-76 48 45 126 c25 69 100 280 166 469 97 273 125 342 137 339 9 -2 920 -325 2026 -716z m3455 -1406 l0 -505 -23 0 c-37 0 -167 -37 -232 -65 -193 -86 -377 -278 -453 -475 -45 -118 -56 -179 -55 -325 0 -122 4 -151 27 -228 75 -251 239 -443 469 -552 68 -33 209 -75 249 -75 17 0 18 -20 18 -460 l0 -460 -3250 0 -3250 0 0 460 c0 440 1 460 18 460 40 0 181 42 249 75 230 109 394 301 469 552 23 77 27 106 27 228 1 149 -11 218 -59 335 -79 195 -258 380 -449 465 -65 28 -195 65 -232 65 l-23 0 0 505 0 505 3250 0 3250 0 0 -505z"
       id="path6"
       style="fill:#ff2a2a" />
  </g>
  <path
     style="fill:#ffffff;fill-opacity:1;stroke-width:2.15727496"
     d="m 288.57395,977.28065 v -59.91317 l 12.40433,-2.85209 c 19.02261,-4.37381 40.90444,-16.87205 55.63953,-31.77962 37.71838,-38.15988 44.04545,-99.03408 15.00064,-144.32454 -15.74288,-24.54835 -44.27517,-44.86361 -71.59745,-50.97807 l -11.44705,-2.56174 v -65.45359 -65.4536 h 431.45499 431.45496 v 65.4536 65.45359 l -11.447,2.56174 c -19.0037,4.25284 -37.4819,14.3634 -52.3583,28.64846 -24.7813,23.79619 -34.848,45.17643 -36.923,78.41876 -3.5476,56.8338 33.9502,107.27201 89.4026,120.25533 l 11.3257,2.65174 v 59.89318 59.89317 H 720.02894 288.57395 Z"
     id="path9"
     inkscape:connector-curvature="0"
     transform="scale(0.75)" />
  <path
     style="fill:#ffffff;fill-opacity:1;stroke-width:2.15727496"
     d="m 430.36014,514.59396 c -7.73015,-16.7565 -21.28449,-32.5644 -37.96842,-44.28106 l -14.8065,-10.3982 2.86901,-7.44643 c 1.57795,-4.09553 11.0874,-30.62484 21.1321,-58.95402 10.04471,-28.32917 19.13113,-52.37561 20.19204,-53.43652 1.13372,-1.13373 65.89886,20.68343 157.10089,52.92191 145.10368,51.29185 337.82817,119.74105 362.27035,128.66612 10.55169,3.85295 5.16916,3.94208 -247.38914,4.09627 l -258.17554,0.15762 z"
     id="path11"
     inkscape:connector-curvature="0"
     transform="scale(0.75)" />
  <path
     style="fill:#ffffff;fill-opacity:1;stroke-width:2.15727496"
     d="m 679.04071,1413.3876 c -69.87987,-5.0325 -147.65078,-21.9737 -207.66776,-45.2371 -31.37053,-12.1597 -95.07471,-44.4781 -123.89991,-62.8569 C 274.49832,1258.7652 199.21677,1186.4875 149.49541,1115.2157 108.22784,1056.0617 69.461078,973.07667 50.564955,903.44276 -9.3600909,682.61362 42.666356,446.28394 189.23829,273.52037 259.38227,190.84203 341.13427,129.79289 443.21188,83.863003 581.68473,21.557053 746.88686,8.9318524 898.00412,49.106528 1008.2177,78.406914 1112.5076,136.59284 1194.6553,214.61555 c 121.1553,115.0716 192.7676,256.61395 214.9329,424.81672 5.0778,38.5338 5.0316,122.98956 -0.088,161.53994 -16.7273,125.94438 -61.6276,237.99559 -134.04,334.50409 -114.1758,152.1694 -283.44288,250.0644 -473.45432,273.8206 -26.56889,3.3217 -99.80951,5.7583 -122.96467,4.0907 z M 1177.3712,978.2507 v -84.8304 l -17.4442,-2.30308 c -78.6829,-10.38821 -110.9252,-98.50007 -56.1413,-153.42315 13.3088,-13.3426 32.8298,-23.44181 48.8264,-25.26042 5.9052,-0.67134 13.8918,-1.69775 17.748,-2.28088 l 7.0111,-1.06026 v -91.58642 -91.58644 h -72.0844 -72.0843 L 993.64787,511.72843 C 930.34411,489.0166 698.50378,406.76715 546.51619,353.10058 469.47494,325.89743 405.76662,304.3864 404.94215,305.29828 c -1.4331,1.58505 -60.27905,166.73392 -60.27905,169.17084 0,0.6474 7.10652,4.68931 15.79224,8.98203 17.451,8.62474 33.3329,21.49276 40.15955,32.5385 2.44855,3.96184 4.45191,7.80377 4.45191,8.53759 0,0.73384 -32.27823,1.59004 -71.72939,1.90265 l -71.72939,0.5684 -0.56262,91.0092 -0.56264,91.00917 9.73106,1.21433 c 5.35207,0.66787 14.04804,1.75147 19.32441,2.40797 23.10534,2.87491 52.6429,25.19123 64.20234,48.50637 28.5794,57.64403 -8.52063,121.86034 -75.17394,130.11826 l -18.03725,2.23472 v 84.79139 84.7914 h 458.42092 458.4209 z"
     id="path13"
     inkscape:connector-curvature="0"
     transform="scale(0.75)" />
</svg>
