<?xml version="1.0" encoding="UTF-8" standalone="no"?>
<svg
   xmlns:dc="http://purl.org/dc/elements/1.1/"
   xmlns:cc="http://creativecommons.org/ns#"
   xmlns:rdf="http://www.w3.org/1999/02/22-rdf-syntax-ns#"
   xmlns:svg="http://www.w3.org/2000/svg"
   xmlns="http://www.w3.org/2000/svg"
   xmlns:sodipodi="http://sodipodi.sourceforge.net/DTD/sodipodi-0.dtd"
   xmlns:inkscape="http://www.inkscape.org/namespaces/inkscape"
   version="1.0"
   width="1080.000000pt"
   height="1080.000000pt"
   viewBox="0 0 1080.000000 1080.000000"
   preserveAspectRatio="xMidYMid meet"
   id="svg12"
   sodipodi:docname="rcff_info_1080p.svg"
   inkscape:version="0.92.4 (5da689c313, 2019-01-14)">
  <defs
     id="defs16" />
  <sodipodi:namedview
     pagecolor="#ffffff"
     bordercolor="#666666"
     borderopacity="1"
     objecttolerance="10"
     gridtolerance="10"
     guidetolerance="10"
     inkscape:pageopacity="0"
     inkscape:pageshadow="2"
     inkscape:window-width="1920"
     inkscape:window-height="1017"
     id="namedview14"
     showgrid="false"
     inkscape:zoom="0.46354778"
     inkscape:cx="843.62251"
     inkscape:cy="740.23487"
     inkscape:window-x="-8"
     inkscape:window-y="-8"
     inkscape:window-maximized="1"
     inkscape:current-layer="svg12" />
  <metadata
     id="metadata2">
Created by potrace 1.16, written by Peter Selinger 2001-2019
<rdf:RDF>
  <cc:Work
     rdf:about="">
    <dc:format>image/svg+xml</dc:format>
    <dc:type
       rdf:resource="http://purl.org/dc/dcmitype/StillImage" />
  </cc:Work>
</rdf:RDF>
</metadata>
  <g
     transform="translate(0.000000,1080.000000) scale(0.100000,-0.100000)"
     fill="#000000"
     stroke="none"
     id="g10">
    <path
       d="M4975 10789 c-1141 -90 -2226 -541 -3100 -1290 -154 -132 -442 -420 -574 -574 -756 -883 -1202 -1962 -1291 -3124 -13 -174 -13 -628 0 -802 89 -1162 535 -2241 1291 -3124 131 -153 419 -442 574 -574 878 -754 1964 -1202 3124 -1291 174 -13 628 -13 802 0 1153 88 2211 522 3099 1270 173 146 474 447 620 620 748 888 1182 1946 1270 3099 13 174 13 628 0 802 -89 1153 -523 2212 -1270 3099 -138 164 -431 459 -595 599 -880 754 -1964 1202 -3124 1291 -158 12 -667 11 -826 -1z m680 -179 c582 -31 1130 -149 1660 -357 188 -74 587 -271 765 -378 384 -231 679 -463 1005 -790 425 -425 717 -830 985 -1366 496 -996 658 -2101 469 -3209 -136 -801 -480 -1595 -978 -2255 -144 -191 -276 -341 -476 -540 -425 -425 -830 -717 -1366 -985 -1219 -607 -2629 -713 -3922 -294 -256 83 -425 153 -692 284 -551 270 -957 561 -1390 995 -327 326 -559 621 -790 1005 -107 178 -304 577 -378 765 -442 1129 -481 2375 -111 3518 83 256 153 425 284 692 270 551 561 957 995 1390 326 327 621 559 1005 790 179 108 577 304 765 378 699 274 1443 396 2170 357z"
       id="path4"
       style="fill:#ff2a2a" />
    <path
       d="M5310 6170 l0 -2330 90 0 90 0 0 2330 0 2330 -90 0 -90 0 0 -2330z"
       id="path6"
       style="fill:#ff2a2a" />
    <path
       d="M5290 3126 c-72 -20 -130 -54 -185 -110 -166 -166 -162 -432 9 -594 163 -155 408 -156 570 -2 234 222 146 605 -162 700 -72 23 -164 25 -232 6z m216 -194 c102 -53 153 -168 120 -275 -20 -66 -54 -107 -115 -141 -137 -74 -305 2 -341 154 -46 192 161 352 336 262z"
       id="path8"
       style="fill:#ff2a2a" />
  </g>
  <path
     style="fill:#ffffff;fill-opacity:1;stroke-width:2.15727496"
     d="m 653.78232,1411.4825 c -53.45495,-5.9129 -105.88762,-17.2436 -152.53625,-32.963 -79.58468,-26.818 -161.94728,-72.144 -219.59368,-120.8474 C 197.57776,1186.6405 142.86157,1117.4359 97.244894,1024.435 62.814963,954.24103 44.722306,895.74818 32.185562,814.1007 25.716427,771.96947 25.084638,674.77921 31.007594,632.88961 42.864906,549.02979 62.841493,484.70391 100.3472,409.61165 140.94879,328.32096 189.42119,264.74367 257.87592,202.99409 307.41947,158.30335 352.59216,128.26845 419.51063,95.524674 572.00456,20.908112 740.66014,5.6886646 906.58159,51.571483 c 85.46879,23.63497 177.16891,70.459657 245.53121,125.375197 24.871,19.97891 73.9006,68.01375 97.892,95.9058 88.7445,103.17329 147.3472,241.33372 160.9198,379.38094 3.5696,36.30646 3.0697,105.86287 -1.0238,142.45181 -20.3618,181.99921 -108.2483,344.10337 -250.4684,461.98157 -95.5137,79.1659 -215.10748,131.6875 -343.85446,151.0093 -33.44948,5.02 -130.23879,7.2971 -161.79562,3.8064 z m 89.54261,-283.1775 c 11.16828,-5.2008 21.93051,-15.7251 28.48503,-27.8552 2.62068,-4.8499 3.78571,-11.9227 3.81522,-23.1616 0.0365,-13.8797 -0.85016,-17.7907 -6.23761,-27.5146 -10.60898,-19.1482 -27.50814,-28.5745 -51.22753,-28.5745 -15.39406,0 -24.38978,3.4888 -35.96885,13.9498 -12.31567,11.1265 -18.13681,24.2058 -18.29583,41.1082 -0.39038,41.4949 42.18364,69.3924 79.42957,52.0479 z M 733.60149,616.71005 V 304.98382 h -12.94365 -12.94365 v 311.72623 311.72622 h 12.94365 12.94365 z"
     id="path10"
     inkscape:connector-curvature="0"
     transform="scale(0.75)" />
  <path
     style="fill:#ffffff;fill-opacity:1;stroke-width:2.15727496"
     d="m 708.79283,1104.4448 c -11.34615,-5.0428 -16.79732,-12.9358 -17.87035,-25.875 -0.92672,-11.1751 -0.59521,-12.097 7.45197,-20.724 6.89404,-7.3908 10.20131,-9.2292 18.23103,-10.1343 16.17443,-1.8231 29.47568,8.0824 33.05537,24.6164 2.35614,10.8827 -5.01184,25.2116 -15.79172,30.7111 -10.04015,5.1221 -15.96716,5.4544 -25.0763,1.4058 z"
     id="path12"
     inkscape:connector-curvature="0"
     transform="scale(0.75)" />
</svg>
