<svg xmlns="http://www.w3.org/2000/svg" xmlns:xlink="http://www.w3.org/1999/xlink" viewBox="0 0 247 236"><defs><style>.cls-1,.cls-4{fill:none;}.cls-2{clip-path:url(#clip-path);}.cls-3{fill:#1e1916;}.cls-4{stroke:#fff;stroke-linecap:round;stroke-width:2.7px;}.cls-5{fill:#fff;}</style><clipPath id="clip-path"><rect class="cls-1" x="22.44" y="16.94" width="202.12" height="202.12"/></clipPath></defs><g id="extra_ikonit_muut" data-name="extra ikonit muut"><g class="cls-2"><path class="cls-3" d="M123.5,219.06A101.06,101.06,0,1,0,22.44,118,101.06,101.06,0,0,0,123.5,219.06"/><circle class="cls-4" cx="123.5" cy="118" r="76.87"/></g><path class="cls-5" d="M133,109.91,154,89l-1.39-1.4-21,20.93A13.12,13.12,0,0,1,133,109.91Z"/><path class="cls-5" d="M114,126.09,93,147l1.39,1.4,21-20.93A13.12,13.12,0,0,1,114,126.09Z"/><path class="cls-5" d="M115.41,108.49l-20.93-21-1.4,1.39,20.93,21A13.12,13.12,0,0,1,115.41,108.49Z"/><path class="cls-5" d="M131.59,127.51l20.93,21,1.4-1.39-20.93-21A13.12,13.12,0,0,1,131.59,127.51Z"/><path class="cls-5" d="M125,105.6V54h-3v51.6a11.3,11.3,0,0,1,3,0Z"/><path class="cls-5" d="M122,130.4V182h3V130.4a11.3,11.3,0,0,1-3,0Z"/><path class="cls-5" d="M111.1,116.5H59.5v3h51.6a11.3,11.3,0,0,1,0-3Z"/><path class="cls-5" d="M135.9,119.5h51.6v-3H135.9a11.3,11.3,0,0,1,0,3Z"/><path class="cls-5" d="M123.5,124.77a6.77,6.77,0,1,1,6.77-6.77A6.78,6.78,0,0,1,123.5,124.77Zm0-10.54a3.77,3.77,0,1,0,3.77,3.77A3.77,3.77,0,0,0,123.5,114.23Z"/></g></svg>