<svg xmlns="http://www.w3.org/2000/svg" xmlns:xlink="http://www.w3.org/1999/xlink" viewBox="0 0 247 236"><defs><style>.cls-1{fill:none;}.cls-2{clip-path:url(#clip-path);}.cls-3{fill:#fff;}.cls-4{fill:#ff3c2b;}</style><clipPath id="clip-path"><rect class="cls-1" x="36.59" y="31.09" width="173.83" height="173.83"/></clipPath></defs><g id="extra_ikonit_muut" data-name="extra ikonit muut"><g class="cls-2"><circle class="cls-3" cx="123.5" cy="118" r="85.41" transform="translate(-0.15 0.16) rotate(-0.07)"/><path class="cls-4" d="M123.5,204.91A86.91,86.91,0,1,1,210.41,118,87,87,0,0,1,123.5,204.91Zm0-170.82A83.91,83.91,0,1,0,207.41,118,84,84,0,0,0,123.5,34.09Z"/></g><path class="cls-4" d="M123.92,190.83,107,135.92a4.19,4.19,0,0,0-2.88-2.82l-53.46-15,53.53-16.11A4.23,4.23,0,0,0,107,99.16l16.94-53.9,19,54a4.22,4.22,0,0,0,2.72,2.62l51.49,16.13-51.41,15.06a4.23,4.23,0,0,0-2.81,2.67ZM61.36,118l43.55,12.26a7.18,7.18,0,0,1,4.94,4.82l14.23,46.14,16-46.37a7.22,7.22,0,0,1,4.79-4.57L186.83,118l-42-13.16a7.3,7.3,0,0,1-4.66-4.49l-16-45.56-14.24,45.32a7.24,7.24,0,0,1-4.81,4.75Z"/></g></svg>